<?xml version="1.0" encoding="UTF-8" standalone="no"?>
<!-- Uploaded to: SVG Repo, www.svgrepo.com, Transformed by: SVG Repo Mixer Tools -->

<svg
   fill="#000000"
   width="500"
   height="500"
   viewBox="0 0 20 20"
   version="1.1"
   id="svg1"
   sodipodi:docname="wrench.svg"
   inkscape:version="1.4 (86a8ad7, 2024-10-11)"
   xmlns:inkscape="http://www.inkscape.org/namespaces/inkscape"
   xmlns:sodipodi="http://sodipodi.sourceforge.net/DTD/sodipodi-0.dtd"
   xmlns="http://www.w3.org/2000/svg"
   xmlns:svg="http://www.w3.org/2000/svg">
  <defs
     id="defs1" />
  <sodipodi:namedview
     id="namedview1"
     pagecolor="#ffffff"
     bordercolor="#000000"
     borderopacity="0.25"
     inkscape:showpageshadow="2"
     inkscape:pageopacity="0.0"
     inkscape:pagecheckerboard="0"
     inkscape:deskcolor="#d1d1d1"
     inkscape:zoom="0.566875"
     inkscape:cx="377.50827"
     inkscape:cy="512.45865"
     inkscape:window-width="1920"
     inkscape:window-height="1129"
     inkscape:window-x="-8"
     inkscape:window-y="-8"
     inkscape:window-maximized="1"
     inkscape:current-layer="svg1" />
  <g
     id="SVGRepo_bgCarrier"
     stroke-width="0"
     transform="matrix(-1,0,0,1,19.999,-4.719)" />
  <g
     id="SVGRepo_tracerCarrier"
     stroke-linecap="round"
     stroke-linejoin="round"
     transform="matrix(-1,0,0,1,19.999,-4.719)" />
  <path
     d="M 12.807581,7.847698 12.554642,5.6781207 15.964051,2.1811476 C 15.231904,1.8233633 14.397937,1.5938259 13.514676,1.5938259 c -3.055458,0 -5.5306934,2.4758995 -5.5306934,5.5905827 0,0.4598916 0.07596,0.9704284 0.1769756,1.4295032 L 1.8730694,14.944569 c -1.13620035,1.174642 -1.23721355,2.961113 -0.2020271,4.00751 1.0351862,1.046396 2.8283784,0.970428 3.9904373,-0.204216 l 6.1367724,-6.253871 c 0.555981,0.178892 1.11115,0.306323 1.71723,0.306323 3.055457,0 5.530693,-2.527363 5.530693,-5.6159064 0,-0.8683211 -0.176976,-1.633718 -0.505068,-2.3737922 L 15.030685,8.409697 Z"
     id="path1"
     style="stroke-width:0.812471" />
</svg>
